<?xml version="1.0" encoding="UTF-8" standalone="no"?>
<!DOCTYPE svg PUBLIC "-//W3C//DTD SVG 1.1//EN" "http://www.w3.org/Graphics/SVG/1.1/DTD/svg11.dtd">
<svg width="100%" height="100%" viewBox="0 0 600 520" version="1.1" xmlns="http://www.w3.org/2000/svg" xmlns:xlink="http://www.w3.org/1999/xlink" xml:space="preserve" xmlns:serif="http://www.serif.com/" style="fill-rule:evenodd;clip-rule:evenodd;stroke-linejoin:round;stroke-miterlimit:2;">
    <g id="Background">
        <path d="M299.5,0L300.5,0C312.62,22.206 596.29,514.733 599.999,518.5C599.502,518.555 600.496,519.944 599.999,519.999C586.124,521.54 586.143,519.999 425.5,519.999C402.663,476.501 212.278,153.055 213.74,149.585C215.734,144.853 271.252,51.701 299.5,0Z" style="fill:rgb(35,35,55);"/>
        <path d="M174.5,519.999L1.5,519.999C5.384,505.899 97.29,355.328 96.205,351.588C94.754,346.584 8.021,202.453 11.494,201.478C19.582,199.209 19.75,201.486 116.5,201.486C182.503,201.486 183.471,200.957 185.084,203.744C191.921,215.556 269.754,350.04 270.226,351.582C271.114,354.481 194.017,482.647 174.5,519.999Z" style="fill:rgb(0,199,111);"/>
    </g>
</svg>
